<svg xmlns="http://www.w3.org/2000/svg" viewBox="0 0 256 256">
  <defs>
    <linearGradient id="shieldGradient" x1="0%" y1="0%" x2="100%" y2="100%">
      <stop offset="0%" stop-color="#0d47a1"/>
      <stop offset="100%" stop-color="#1976d2"/>
    </linearGradient>
    <linearGradient id="shieldHighlight" x1="0%" y1="0%" x2="100%" y2="0%">
      <stop offset="0%" stop-color="#e53935"/>
      <stop offset="100%" stop-color="#b71c1c"/>
    </linearGradient>
  </defs>
  <g fill="none" fill-rule="evenodd">
    <path d="M128 14l96 32v72c0 50.897-39.704 97.85-96 124-56.296-26.15-96-73.103-96-124V46l96-32z" fill="#111827"/>
    <path d="M128 28l80 26.666V118c0 43.722-34.19 84.03-80 105.81-45.81-21.78-80-62.088-80-105.81V54.666L128 28z" fill="#f9fafb"/>
    <path d="M128 48l60 20v52c0 34.519-25.273 66.661-60 84-34.727-17.339-60-49.481-60-84V68l60-20z" fill="#111827"/>
    <path d="M128 14l96 32v0l-22 7.333-74-23.333-74 23.333L32 46l96-32z" fill="#1f2937"/>
    <path d="M128 28l-80 26.667V54.666L128 28z" fill="url(#shieldGradient)"/>
    <path d="M128 28l80 26.667V54.666L128 28z" fill="url(#shieldHighlight)"/>
    <rect x="104" y="88" width="48" height="72" rx="12" fill="#f9fafb"/>
    <path d="M152 120v32a24 24 0 11-48 0v-32h48zm-24-32c8.837 0 16 7.163 16 16v16h-32v-16c0-8.837 7.163-16 16-16z" fill="#111827"/>
    <circle cx="128" cy="148" r="12" fill="#e53935"/>
  </g>
</svg>
